<svg height="200" viewBox="0 0 200 200" width="200" xmlns="http://www.w3.org/2000/svg"><g fill="none" fill-rule="evenodd" transform="translate(-366.5 -44)"><g transform="matrix(.8480481 .52991926 -.52991926 .8480481 410.119831 .176542)"><path d="m84.0273469 20.106217c12.7655983 23.7761433 11.2487134 84.086303-5.249685 88.335763-6.5795243 1.694675-20.5958514-2.456588-34.8612176-11.0484333l8.9540241 63.2988793h-52.8704684l18.2000431-84.7719087c-10.15026167-11.9058384-17.02002787-26.4964144-15.87203227-42.8454949 3.30782739-47.1081391 68.93373787-36.74494873 81.69933607-12.9688054z" fill="#d4a181" transform="translate(103.808554 24.809249)"/><path d="m172.099576.59532216c12.16648 0 22.029362 9.85540404 22.029362 22.01266104 0 11.7564053-9.223202 21.3602495-20.833679 21.9807885-6.642432 2.0477603-15.17805 3.5518134-24.644133 4.1859699.919583 3.4519399 1.419088 7.3751027 1.419088 11.8085209 0 3.9141658-.432349 8.0653522-1.22845 12.2803123-2.052701-2.4380233-4.797445-4.0290033-7.583295-4.0290033-7.793032 0-13.217617 6.4060127-13.217617 13.2075967 0 8.6320233 4.986912 14.8767305 12.266902 15.3765234-6.555436 12.5750194-15.623015 22.0450004-24.681905 22.0450004-17.2065081 0-29.4407845-22.9872068-29.4407845-47.702386 0-.8679051.0172008-1.7300396.0511394-2.5857385-5.3244477 3.6496152-10.292084 8.3381889-15.2587804 13.1446734l-1.3861002 1.3434548c-.2311082.2241726-.462286.4484152-.6935693.6726354l-1.389252 1.3443125c-10.896879 10.5167509-22.1850439 20.5754514-37.5847854 20.5754514-32.76540731 0-45.7779165-66.0379829 0-66.0379829 31.1329229 0 46.4467874 4.5358016 59.6444861 11.2431479 2.6030788-7.3350159 6.5738862-13.5016339 11.4294413-17.807086 1.170221-1.3160985 2.967914-2.5759189 5.287446-3.743435 1.392854-.7605759 2.833133-1.3806184 4.312906-1.8495421 7.960718-2.9280094 19.504784-4.9951244 32.402121-5.4451679 2.405064-.0839231 4.767113-.1084712 7.071378-.0775159.036119-12.1251154 9.884663-21.94319094 22.028081-21.94319094z" fill="#191847"/></g><g transform="matrix(.93358043 .35836795 -.35836795 .93358043 253.093351 114.261277)"><path d="m195.638758 29.1755986 18.692022-4.912659c75.725895 54.6168784 114.860376 168.8463734 206.575328 223.1481274l-18.521556 27.546215c-151.34157-5.424771-200.911231-144.596786-206.745794-245.7816834z" fill="#e87613" transform="matrix(.9961947 .08715574 -.08715574 .9961947 14.21245 -26.298401)"/><path d="m123.524257 259.024336h168.549843c7.701868 0 6.250598-11.11279 5.137246-16.720365-12.849424-64.71819-63.008702-134.481268-63.008702-226.6059827l-48.61771-7.6179883c-40.213091 64.6256659-54.119475 144.192946-62.060677 250.944336z" fill="#dde3e9"/><path d="m181.924164 8.08c1.644412 0 3.150617.10292804 4.518616.30878412l15.22312.8683208c43.667479 147.88205708 55.710709 246.54666408 36.12969 295.99382008l-132.662498.001499c-7.8598407 18.313592-15.3810535 33.721955-22.5636383 46.225089h-36.1479635c-3.4020508-109.916248 22.7506749-203.207842 78.4581768-279.8747805-7.060399-2.0254572-12.653122-6.7561103-16.775964-14.1897391-17.7698588-32.03968-11.352331-49.67989706 7.638013-55.47833601 18.990344-5.79843894 35.925754 6.14534261 66.182448 6.14534261z" fill="#ff9b21"/></g></g></svg>